<?xml version="1.0" encoding="utf-8"?>
<!-- Generator: Adobe Illustrator 25.0.1, SVG Export Plug-In . SVG Version: 6.00 Build 0)  -->
<svg version="1.0" id="Layer_1" xmlns="http://www.w3.org/2000/svg" xmlns:xlink="http://www.w3.org/1999/xlink" x="0px" y="0px"
	 width="1024px" height="332px" viewBox="0 0 1024 332" style="enable-background:new 0 0 1024 332;" xml:space="preserve">
<style type="text/css">
	.st0{fill:#444444;}
	.st1{fill:#009245;}
	.st2{fill:#39B54A;}
	.st3{fill:#02C6C1;}
	.st4{fill:#00FFFF;}
	.st5{fill:#FF5B00;}
	.st6{fill:#FF8100;}
	.st7{fill:#008091;}
	.st8{fill:#009CB9;}
	.st9{fill:#FFFFFF;stroke:#FFFFFF;stroke-width:3;stroke-miterlimit:10;}
	.st10{fill:none;stroke:#000000;stroke-width:4;stroke-miterlimit:10;}
	.st11{fill:#232323;}
	.st12{fill:#FF5050;}
	.st13{fill:#A0A0A0;}
	.st14{fill:none;stroke:#A8A8A8;stroke-width:5;stroke-linecap:round;stroke-miterlimit:10;}
	.st15{fill:none;stroke:#000000;stroke-width:4;stroke-linecap:round;stroke-miterlimit:10;}
	.st16{fill:#595959;}
</style>
<rect x="12" y="33" class="st0" width="1000" height="300"/>
<g>
	<polygon class="st1" points="73.33,276 73,268 32.33,252.33 32.33,299.67 	"/>
	<polygon class="st2" points="73.33,268 32.33,244.33 32.33,291.67 	"/>
</g>
<g>
	<rect x="378" y="167.42" class="st3" width="55.17" height="55.17"/>
	<rect x="378" y="157.42" class="st4" width="55.17" height="55.17"/>
</g>
<g>
	<rect x="590.83" y="167.42" class="st3" width="55.17" height="55.17"/>
	<rect x="590.83" y="157.42" class="st4" width="55.17" height="55.17"/>
</g>
<g>
	<rect x="519.89" y="167.42" class="st3" width="55.17" height="55.17"/>
	<rect x="519.89" y="157.42" class="st4" width="55.17" height="55.17"/>
</g>
<g>
	<rect x="448.94" y="167.42" class="st3" width="55.17" height="55.17"/>
	<rect x="448.94" y="157.42" class="st4" width="55.17" height="55.17"/>
</g>
<g>
	<g>
		<path class="st5" d="M378.02,121.85c0.18,8.37,5.07,15.15,11.03,15.15h115.67c5.97,0,10.86-6.78,11.03-15.15
			c0.02-12.87,1.92-3.35-15.58-8.18c-2.7,0.07-111.66,1.06-113.78,1.06C377.61,120.06,378.37,109,378.02,121.85z"/>
	</g>
	<g>
		<path class="st6" d="M378.02,113.11c0.18,8.37,5.07,15.15,11.03,15.15h115.67c5.97,0,10.86-6.78,11.03-15.15
			c-0.35-12.85-7.83-23.12-17.01-23.12c-2.7,0-5.26,0.89-7.53,2.48c-2.81-21.32-16.04-37.46-31.95-37.46
			c-11.98,0-22.43,9.16-28.07,22.78c-2.99-1.98-6.33-3.1-9.85-3.1c-8.73,0-16.33,6.8-20.29,16.86c-1.87-1-3.9-1.55-6.02-1.55
			C385.85,89.99,378.37,100.26,378.02,113.11z"/>
	</g>
</g>
<g>
	<path class="st7" d="M610,63h-50c-6.6,0-12,5.4-12,12v50c0,6.6,5.4,12,12,12h50c6.6,0,12-5.4,12-12V75C622,68.4,616.6,63,610,63z"
		/>
	<path class="st8" d="M610,55h-50c-6.6,0-12,5.4-12,12v50c0,6.6,5.4,12,12,12h50c6.6,0,12-5.4,12-12V67C622,60.4,616.6,55,610,55z"
		/>
	<g>
		<path class="st9" d="M570.89,72.81c0.06,1.9-1.33,3.41-3.54,3.41c-1.96,0-3.35-1.52-3.35-3.41c0-1.96,1.45-3.47,3.47-3.47
			C569.56,69.33,570.89,70.85,570.89,72.81z M564.7,111.97V81.4h5.56v30.58H564.7z"/>
		<path class="st9" d="M579.48,89.67c0-3.16-0.06-5.75-0.25-8.28h4.93l0.32,5.05h0.13c1.52-2.91,5.05-5.75,10.11-5.75
			c4.23,0,10.8,2.53,10.8,13.01v18.26h-5.56V94.35c0-4.93-1.83-9.03-7.07-9.03c-3.66,0-6.51,2.59-7.45,5.69
			c-0.25,0.7-0.38,1.64-0.38,2.59v18.38h-5.56V89.67z"/>
	</g>
</g>
<g>
	<polygon class="st1" points="992.33,276 992,268 951.33,252.33 951.33,299.67 	"/>
	<polygon class="st2" points="992.33,268 951.33,244.33 951.33,291.67 	"/>
</g>
<path class="st0" d="M12,33v287h1000V33H12z M548,117V75v-8c0-6.6,5.4-12,12-12h50c6.6,0,12,5.4,12,12v8v42v8c0,6.6-5.4,12-12,12
	h-50c-6.6,0-12-5.4-12-12V117z M73.33,276l-41,23.67v-8v-39.34v-8l41,23.67l-0.32,0.19L73.33,276z M433.17,167.42v45.17v10H378v-10
	v-45.17v-10h55.17V167.42z M504.11,167.42v45.17v10h-55.17v-10v-45.17v-10h55.17V167.42z M515.75,121.85
	c-0.17,8.37-5.06,15.15-11.03,15.15H389.05c-5.96,0-10.85-6.78-11.03-15.15c0.09-3.44,0.11-5.16,0.25-5.94
	c-0.14-0.91-0.23-1.84-0.25-2.8c0.35-12.85,7.83-23.12,17.01-23.11c2.12,0,4.15,0.55,6.02,1.55c3.96-10.06,11.56-16.86,20.29-16.86
	c3.52,0,6.86,1.12,9.85,3.1c5.64-13.62,16.09-22.78,28.07-22.78c15.91,0,29.14,16.14,31.95,37.46c2.27-1.59,4.83-2.48,7.53-2.48
	c9.18,0,16.66,10.27,17.01,23.12c-0.01,0.68-0.07,1.34-0.14,1.99C515.97,115.78,515.76,117.58,515.75,121.85z M575.06,167.42v45.17
	v10h-55.17v-10v-45.17v-10h55.17V167.42z M646,167.42v45.17v10h-55.17v-10v-45.17v-10H646V167.42z M992.33,276l-41,23.67v-8v-39.34
	v-8l41,23.67l-0.32,0.19L992.33,276z"/>
<line class="st10" x1="358" y1="320" x2="358" y2="33"/>
<line class="st10" x1="666" y1="33" x2="666" y2="320"/>
<g>
	<circle class="st11" cx="839" cy="202" r="111"/>
	<circle class="st12" cx="839" cy="202" r="42"/>
	<circle class="st13" cx="839" cy="202" r="5"/>
	<g>
		<path class="st14" d="M741,202c0-54.12,43.88-98,98-98"/>
		<path class="st14" d="M752.58,202c0-47.73,38.69-86.42,86.42-86.42"/>
		<path class="st14" d="M764.17,202c0-41.33,33.5-74.83,74.83-74.83"/>
		<path class="st14" d="M775.75,202c0-34.93,28.32-63.25,63.25-63.25"/>
		<path class="st14" d="M787.34,202c0-28.53,23.13-51.66,51.66-51.66"/>
	</g>
	<g>
		<path class="st14" d="M937,202c0,54.12-43.88,98-98,98"/>
		<path class="st14" d="M925.42,202c0,47.73-38.69,86.42-86.42,86.42"/>
		<path class="st14" d="M913.83,202c0,41.33-33.5,74.83-74.83,74.83"/>
		<path class="st14" d="M902.25,202c0,34.93-28.32,63.25-63.25,63.25"/>
		<path class="st14" d="M890.66,202c0,28.53-23.13,51.66-51.66,51.66"/>
	</g>
</g>
<g>
	<circle class="st11" cx="186" cy="202" r="111"/>
	<circle class="st12" cx="186" cy="202" r="42"/>
	<circle class="st13" cx="186" cy="202" r="5"/>
	<g>
		<path class="st14" d="M186,104c54.12,0,98,43.88,98,98"/>
		<path class="st14" d="M186,115.58c47.73,0,86.42,38.69,86.42,86.42"/>
		<path class="st14" d="M186,127.17c41.33,0,74.83,33.5,74.83,74.83"/>
		<path class="st14" d="M186,138.75c34.93,0,63.25,28.32,63.25,63.25"/>
		<path class="st14" d="M186,150.34c28.53,0,51.66,23.13,51.66,51.66"/>
	</g>
	<g>
		<path class="st14" d="M186,300c-54.12,0-98-43.88-98-98"/>
		<path class="st14" d="M186,288.42c-47.73,0-86.42-38.69-86.42-86.42"/>
		<path class="st14" d="M186,276.83c-41.33,0-74.83-33.5-74.83-74.83"/>
		<path class="st14" d="M186,265.25c-34.93,0-63.25-28.32-63.25-63.25"/>
		<path class="st14" d="M186,253.66c-28.53,0-51.66-23.13-51.66-51.66"/>
	</g>
</g>
<line class="st15" x1="328" y1="288" x2="328" y2="104"/>
<line class="st15" x1="696" y1="288" x2="696" y2="104"/>
<rect x="306" y="185" class="st11" width="44" height="22"/>
<line class="st15" x1="382" y1="292" x2="642" y2="292"/>
<rect x="501" y="270" class="st11" width="22" height="44"/>
<rect x="675" y="185" class="st11" width="44" height="22"/>
<g>
	<rect x="92" y="11" class="st16" width="186" height="73"/>
	<rect x="98" y="16" class="st11" width="174" height="63"/>
</g>
<g>
	<rect x="746" y="11" class="st16" width="186" height="73"/>
	<rect x="752" y="16" class="st11" width="174" height="63"/>
</g>
<rect x="12" y="320" class="st16" width="1000" height="13"/>
</svg>
