<svg version="1.0" id="Layer_1" xmlns="http://www.w3.org/2000/svg" x="0" y="0" viewBox="0 0 1000 322" xml:space="preserve">
  <style>
    .st0{fill:#595959}.st2{fill:#fff;stroke:#000;stroke-width:4;stroke-miterlimit:10}.st3{fill:#232323}.st4{fill:#ff5050}.st5{fill:#a0a0a0}.st6{fill:#009245}.st7{fill:#39b54a}.st8{fill:#fff;stroke:#000;stroke-width:4;stroke-linecap:round;stroke-miterlimit:10}.st9{fill:#02c6c1}.st10{fill:#0ff}
  </style>
  <path class="st0" d="M0 22h1000v300H0z"/>
  <path fill="#666" d="M0 22h1000v287H0z"/>
  <path class="st2" d="M346 309V22M654 22v287"/>
  <path class="st0" d="M734 0h186v73H734z"/>
  <path transform="rotate(-180 173 36.5)" class="st0" d="M80 0h186v73H80z"/>
  <circle class="st3" cx="827" cy="191" r="111"/>
  <circle class="st4" cx="827" cy="191" r="42"/>
  <circle class="st5" cx="827" cy="191" r="5"/>
  <circle class="st3" cx="173" cy="191" r="111"/>
  <circle class="st4" cx="173" cy="191" r="42"/>
  <circle class="st5" cx="173" cy="191" r="5"/>
  <path class="st6" d="M61.33 265l-.33-8-40.67-15.67v47.34z"/>
  <path class="st7" d="M61.33 257l-41-23.67v47.34z"/>
  <path class="st6" d="M980.33 265l-.33-8-40.67-15.67v47.34z"/>
  <path class="st7" d="M980.33 257l-41-23.67v47.34z"/>
  <path class="st8" d="M316 277V93M684 277V93"/>
  <path class="st3" d="M294 174h44v22h-44z"/>
  <path class="st8" d="M370 281h260"/>
  <path transform="rotate(-90 500 281)" class="st3" d="M478 270h44v22h-44z"/>
  <path class="st3" d="M663 174h44v22h-44z"/>
  <path class="st9" d="M366 156.42h55.17v55.17H366zM578.83 156.42H634v55.17h-55.17zM507.89 156.42h55.17v55.17h-55.17z"/>
  <path class="st10" d="M366 146.42h55.17v55.17H366zM578.83 146.42H634v55.17h-55.17zM507.89 146.42h55.17v55.17h-55.17z"/>
  <path class="st9" d="M436.94 156.42h55.17v55.17h-55.17z"/>
  <path class="st10" d="M436.94 146.42h55.17v55.17h-55.17z"/>
  <g>
    <path d="M366.02 110.85c.18 8.37 5.07 15.15 11.03 15.15h115.67c5.97 0 10.86-6.78 11.03-15.15.02-12.87.99-23.56-17.01-23.12-2.7.07-5.26.89-7.53 2.48-2.81-21.32-16.04-37.46-31.95-37.46-11.98 0-22.43 9.16-28.07 22.78-2.99-1.98-6.33-3.1-9.85-3.1-8.73 0-16.33 6.8-20.29 16.86-1.87-1-11.1-1.55-13.22-1.55-9.17-.01-9.46 10.26-9.81 23.11z" fill="#ff5b00"/>
  </g>
  <g>
    <path d="M366.02 102.11c.18 8.37 5.07 15.15 11.03 15.15h115.67c5.97 0 10.86-6.78 11.03-15.15-.35-12.85-7.83-23.12-17.01-23.12-2.7 0-5.26.89-7.53 2.48C476.41 60.14 463.18 44 447.27 44c-11.98 0-22.43 9.16-28.07 22.78-2.99-1.98-6.33-3.1-9.85-3.1-8.73 0-16.33 6.8-20.29 16.86-1.87-1-3.9-1.55-6.02-1.55-9.19 0-16.67 10.27-17.02 23.12z" fill="#ff8100"/>
  </g>
  <path d="M598 52h-50c-6.6 0-12 5.4-12 12v50c0 6.6 5.4 12 12 12h50c6.6 0 12-5.4 12-12V64c0-6.6-5.4-12-12-12z" fill="#008091"/>
  <path d="M598 44h-50c-6.6 0-12 5.4-12 12v50c0 6.6 5.4 12 12 12h50c6.6 0 12-5.4 12-12V56c0-6.6-5.4-12-12-12z" fill="#009cb9"/>
  <path transform="rotate(-180 173 36.5)" class="st3" d="M86 5h174v63H86z"/>
  <path transform="rotate(-180 827 36.5)" class="st3" d="M740 5h174v63H740z"/>
</svg>
