<svg version="1.0" id="Layer_1" xmlns="http://www.w3.org/2000/svg" x="0" y="0" width="1024" height="332" xml:space="preserve">
  <style>
    .st0{fill:#444}.st1{fill:#009245}.st2{fill:#39b54a}.st3{fill:#02c6c1}.st4{fill:#0ff}.st10,.st9{fill:#fff;stroke:#fff;stroke-width:3;stroke-miterlimit:10}.st10{fill:none;stroke:#000;stroke-width:4}.st11{fill:#232323}.st12{fill:#ff5050}.st13{fill:#a0a0a0}.st14,.st15{fill:none;stroke:#a8a8a8;stroke-width:5;stroke-linecap:round;stroke-miterlimit:10}.st15{stroke:#000;stroke-width:4}.st16{fill:#595959}
  </style>
  <path class="st0" d="M12 33h1000v300H12z"/>
  <path class="st1" d="M73.33 276l-.33-8-40.67-15.67v47.34z"/>
  <path class="st2" d="M73.33 268l-41-23.67v47.34z"/>
  <path class="st3" d="M378 167.42h55.17v55.17H378z"/>
  <path class="st4" d="M378 157.42h55.17v55.17H378z"/>
  <path class="st3" d="M590.83 167.42H646v55.17h-55.17z"/>
  <path class="st4" d="M590.83 157.42H646v55.17h-55.17z"/>
  <path class="st3" d="M519.89 167.42h55.17v55.17h-55.17z"/>
  <path class="st4" d="M519.89 157.42h55.17v55.17h-55.17z"/>
  <path class="st3" d="M448.94 167.42h55.17v55.17h-55.17z"/>
  <path class="st4" d="M448.94 157.42h55.17v55.17h-55.17z"/>
  <path d="M378.02 121.85c.18 8.37 5.07 15.15 11.03 15.15h115.67c5.97 0 10.86-6.78 11.03-15.15.02-12.87 1.92-3.35-15.58-8.18-2.7.07-111.66 1.06-113.78 1.06-8.78 5.33-8.02-5.73-8.37 7.12z" fill="#ff5b00"/>
  <path d="M378.02 113.11c.18 8.37 5.07 15.15 11.03 15.15h115.67c5.97 0 10.86-6.78 11.03-15.15-.35-12.85-7.83-23.12-17.01-23.12-2.7 0-5.26.89-7.53 2.48-2.81-21.32-16.04-37.46-31.95-37.46-11.98 0-22.43 9.16-28.07 22.78-2.99-1.98-6.33-3.1-9.85-3.1-8.73 0-16.33 6.8-20.29 16.86-1.87-1-3.9-1.55-6.02-1.55-9.18-.01-16.66 10.26-17.01 23.11z" fill="#ff8100"/>
  <path d="M610 63h-50c-6.6 0-12 5.4-12 12v50c0 6.6 5.4 12 12 12h50c6.6 0 12-5.4 12-12V75c0-6.6-5.4-12-12-12z" fill="#008091"/>
  <path d="M610 55h-50c-6.6 0-12 5.4-12 12v50c0 6.6 5.4 12 12 12h50c6.6 0 12-5.4 12-12V67c0-6.6-5.4-12-12-12z" fill="#009cb9"/>
  <path class="st9" d="M570.89 72.81c.06 1.9-1.33 3.41-3.54 3.41-1.96 0-3.35-1.52-3.35-3.41 0-1.96 1.45-3.47 3.47-3.47 2.09-.01 3.42 1.51 3.42 3.47zm-6.19 39.16V81.4h5.56v30.58h-5.56zM579.48 89.67c0-3.16-.06-5.75-.25-8.28h4.93l.32 5.05h.13c1.52-2.91 5.05-5.75 10.11-5.75 4.23 0 10.8 2.53 10.8 13.01v18.26h-5.56V94.35c0-4.93-1.83-9.03-7.07-9.03-3.66 0-6.51 2.59-7.45 5.69-.25.7-.38 1.64-.38 2.59v18.38h-5.56V89.67z"/>
  <path class="st1" d="M992.33 276l-.33-8-40.67-15.67v47.34z"/>
  <path class="st2" d="M992.33 268l-41-23.67v47.34z"/>
  <path class="st0" d="M12 33v287h1000V33H12zm536 84V67c0-6.6 5.4-12 12-12h50c6.6 0 12 5.4 12 12v58c0 6.6-5.4 12-12 12h-50c-6.6 0-12-5.4-12-12v-8zM73.33 276l-41 23.67v-55.34l41 23.67-.32.19.32 7.81zm359.84-108.58v55.17H378v-65.17h55.17v10zm70.94 0v55.17h-55.17v-65.17h55.17v10zm11.64-45.57c-.17 8.37-5.06 15.15-11.03 15.15H389.05c-5.96 0-10.85-6.78-11.03-15.15.09-3.44.11-5.16.25-5.94-.14-.91-.23-1.84-.25-2.8.35-12.85 7.83-23.12 17.01-23.11 2.12 0 4.15.55 6.02 1.55 3.96-10.06 11.56-16.86 20.29-16.86 3.52 0 6.86 1.12 9.85 3.1 5.64-13.62 16.09-22.78 28.07-22.78 15.91 0 29.14 16.14 31.95 37.46 2.27-1.59 4.83-2.48 7.53-2.48 9.18 0 16.66 10.27 17.01 23.12-.01.68-.07 1.34-.14 1.99.36.68.15 2.48.14 6.75zm59.31 45.57v55.17h-55.17v-65.17h55.17v10zm70.94 0v55.17h-55.17v-65.17H646v10zM992.33 276l-41 23.67v-55.34l41 23.67-.32.19.32 7.81z"/>
  <path class="st10" d="M358 320V33M666 33v287"/>
  <circle class="st11" cx="839" cy="202" r="111"/>
  <circle class="st12" cx="839" cy="202" r="42"/>
  <circle class="st13" cx="839" cy="202" r="5"/>
  <path class="st14" d="M741 202c0-54.12 43.88-98 98-98M752.58 202c0-47.73 38.69-86.42 86.42-86.42M764.17 202c0-41.33 33.5-74.83 74.83-74.83M775.75 202c0-34.93 28.32-63.25 63.25-63.25M787.34 202c0-28.53 23.13-51.66 51.66-51.66"/>
  <g>
    <path class="st14" d="M937 202c0 54.12-43.88 98-98 98M925.42 202c0 47.73-38.69 86.42-86.42 86.42M913.83 202c0 41.33-33.5 74.83-74.83 74.83M902.25 202c0 34.93-28.32 63.25-63.25 63.25M890.66 202c0 28.53-23.13 51.66-51.66 51.66"/>
  </g>
  <g>
    <circle class="st11" cx="186" cy="202" r="111"/>
    <circle class="st12" cx="186" cy="202" r="42"/>
    <circle class="st13" cx="186" cy="202" r="5"/>
    <path class="st14" d="M186 104c54.12 0 98 43.88 98 98M186 115.58c47.73 0 86.42 38.69 86.42 86.42M186 127.17c41.33 0 74.83 33.5 74.83 74.83M186 138.75c34.93 0 63.25 28.32 63.25 63.25M186 150.34c28.53 0 51.66 23.13 51.66 51.66"/>
    <g>
      <path class="st14" d="M186 300c-54.12 0-98-43.88-98-98M186 288.42c-47.73 0-86.42-38.69-86.42-86.42M186 276.83c-41.33 0-74.83-33.5-74.83-74.83M186 265.25c-34.93 0-63.25-28.32-63.25-63.25M186 253.66c-28.53 0-51.66-23.13-51.66-51.66"/>
    </g>
  </g>
  <path class="st15" d="M328 288V104M696 288V104"/>
  <path class="st11" d="M306 185h44v22h-44z"/>
  <path class="st15" d="M382 292h260"/>
  <path class="st11" d="M501 270h22v44h-22zM675 185h44v22h-44z"/>
  <g>
    <path class="st16" d="M92 11h186v73H92z"/>
    <path class="st11" d="M98 16h174v63H98z"/>
  </g>
  <g>
    <path class="st16" d="M746 11h186v73H746z"/>
    <path class="st11" d="M752 16h174v63H752z"/>
  </g>
  <path class="st16" d="M12 320h1000v13H12z"/>
</svg>
