<?xml version="1.0" encoding="utf-8"?>
<!-- Generator: Adobe Illustrator 25.0.1, SVG Export Plug-In . SVG Version: 6.00 Build 0)  -->
<svg version="1.1" id="Layer_1" xmlns="http://www.w3.org/2000/svg" xmlns:xlink="http://www.w3.org/1999/xlink" x="0px" y="0px"
	 width="1024px" height="332px" viewBox="0 0 1024 332" style="enable-background:new 0 0 1024 332;" xml:space="preserve">
<style type="text/css">
	.st0{fill:#444444;}
	.st1{fill:#02C6C1;}
	.st2{fill:#00FFFF;}
	.st3{fill:#FF5B00;}
	.st4{fill:#FF8100;}
	.st5{fill:#008091;}
	.st6{fill:#009CB9;}
	.st7{fill:#FFFFFF;stroke:#FFFFFF;stroke-width:3;stroke-miterlimit:10;}
	.st8{fill:none;stroke:#000000;stroke-width:4;stroke-miterlimit:10;}
	.st9{fill:#232323;}
	.st10{fill:#FF5050;}
	.st11{fill:#A0A0A0;}
	.st12{fill:none;stroke:#A8A8A8;stroke-width:5;stroke-linecap:round;stroke-miterlimit:10;}
	.st13{fill:#595959;}
</style>
<rect x="12" y="33" class="st0" width="1000" height="299"/>
<g>
	<rect x="378" y="247.4" class="st1" width="55.2" height="55.2"/>
	<rect x="378" y="237.4" class="st2" width="55.2" height="55.2"/>
</g>
<g>
	<rect x="590.8" y="247.4" class="st1" width="55.2" height="55.2"/>
	<rect x="590.8" y="237.4" class="st2" width="55.2" height="55.2"/>
</g>
<g>
	<rect x="519.9" y="247.4" class="st1" width="55.2" height="55.2"/>
	<rect x="519.9" y="237.4" class="st2" width="55.2" height="55.2"/>
</g>
<g>
	<rect x="448.9" y="247.4" class="st1" width="55.2" height="55.2"/>
	<rect x="448.9" y="237.4" class="st2" width="55.2" height="55.2"/>
</g>
<g>
	<g>
		<path class="st3" d="M378,121.8c0.2,8.4,5.1,15.2,11,15.2h115.7c6,0,10.9-6.8,11-15.2c0-12.9,1.9-3.3-15.6-8.2
			c-2.7,0.1-111.7,1.1-113.8,1.1C377.6,120.1,378.4,109,378,121.8z"/>
	</g>
	<g>
		<path class="st4" d="M378,113.1c0.2,8.4,5.1,15.1,11,15.1h115.7c6,0,10.9-6.8,11-15.2c-0.3-12.8-7.8-23.1-17-23.1
			c-2.7,0-5.3,0.9-7.5,2.5c-2.8-21.3-16-37.5-32-37.5c-12,0-22.4,9.2-28.1,22.8c-3-2-6.3-3.1-9.9-3.1c-8.7,0-16.3,6.8-20.3,16.9
			c-1.9-1-3.9-1.6-6-1.6C385.9,90,378.4,100.3,378,113.1z"/>
	</g>
</g>
<g>
	<path class="st5" d="M610,63h-50c-6.6,0-12,5.4-12,12v50c0,6.6,5.4,12,12,12h50c6.6,0,12-5.4,12-12V75C622,68.4,616.6,63,610,63z"
		/>
	<path class="st6" d="M610,55h-50c-6.6,0-12,5.4-12,12v50c0,6.6,5.4,12,12,12h50c6.6,0,12-5.4,12-12V67C622,60.4,616.6,55,610,55z"
		/>
	<g>
		<path class="st7" d="M570.9,72.8c0.1,1.9-1.3,3.4-3.5,3.4c-2,0-3.3-1.5-3.3-3.4c0-2,1.5-3.5,3.5-3.5
			C569.6,69.3,570.9,70.8,570.9,72.8z M564.7,112V81.4h5.6V112L564.7,112L564.7,112z"/>
		<path class="st7" d="M579.5,89.7c0-3.2-0.1-5.8-0.2-8.3h4.9l0.3,5.1h0.1c1.5-2.9,5-5.8,10.1-5.8c4.2,0,10.8,2.5,10.8,13V112H600
			V94.3c0-4.9-1.8-9-7.1-9c-3.7,0-6.5,2.6-7.5,5.7c-0.2,0.7-0.4,1.6-0.4,2.6V112h-5.6L579.5,89.7L579.5,89.7z"/>
	</g>
</g>
<path class="st0" d="M12,33v299h1000V33H12z M548,117V75v-8c0-6.6,5.4-12,12-12h50c6.6,0,12,5.4,12,12v8v42v8c0,6.6-5.4,12-12,12
	h-50c-6.6,0-12-5.4-12-12V117z M378,208.7v-45.2v-10h55.2v10v45.2v10H378V208.7z M433.2,292.6v10H378v-10v-45.2v-10h55.2v10h0V292.6
	z M504.1,247.4v45.2v10h-55.2v-10v-45.2v-10h55.2V247.4z M504.1,163.6v45.2v10h-55.2v-10v-45.2v-10h55.2V163.6z M515.8,121.8
	c-0.2,8.4-5.1,15.2-11,15.2H389c-6,0-10.8-6.8-11-15.2c0.1-3.4,0.1-5.2,0.2-5.9c-0.1-0.9-0.2-1.8-0.2-2.8c0.3-12.8,7.8-23.1,17-23.1
	c2.1,0,4.1,0.5,6,1.5c4-10.1,11.6-16.9,20.3-16.9c3.5,0,6.9,1.1,9.8,3.1c5.6-13.6,16.1-22.8,28.1-22.8c15.9,0,29.1,16.1,32,37.5
	c2.3-1.6,4.8-2.5,7.5-2.5c9.2,0,16.7,10.3,17,23.1c0,0.7-0.1,1.3-0.1,2C516,115.8,515.8,117.6,515.8,121.8z M575.1,247.4v45.2v10
	h-55.2v-10v-45.2v-10h55.2V247.4z M575.1,163.6v45.2v10h-55.2v-10v-45.2v-10h55.2V163.6z M646,247.4v45.2v10h-55.2v-10v-45.2v-10
	H646V247.4z M646,163.6v45.2v10h-55.2v-10v-45.2v-10H646V163.6z"/>
<line class="st8" x1="358" y1="320" x2="358" y2="33"/>
<line class="st8" x1="666" y1="33" x2="666" y2="320"/>
<g>
	<circle class="st9" cx="186" cy="191.5" r="118.7"/>
	<circle class="st10" cx="186" cy="191.5" r="44.9"/>
	<circle class="st11" cx="186" cy="191.5" r="5.3"/>
	<g>
		<path class="st12" d="M186,86.7c57.9,0,104.8,46.9,104.8,104.8"/>
		<path class="st12" d="M186,99.1c51,0,92.4,41.4,92.4,92.4"/>
		<path class="st12" d="M186,111.5c44.2,0,80,35.8,80,80"/>
		<path class="st12" d="M186,123.9c37.3,0,67.6,30.3,67.6,67.6"/>
		<path class="st12" d="M186,136.3c30.5,0,55.2,24.7,55.2,55.2"/>
	</g>
	<g>
		<path class="st12" d="M186,296.3c-57.9,0-104.8-46.9-104.8-104.8"/>
		<path class="st12" d="M186,283.9c-51,0-92.4-41.4-92.4-92.4"/>
		<path class="st12" d="M186,271.5c-44.2,0-80-35.8-80-80"/>
		<path class="st12" d="M186,259.1c-37.3,0-67.6-30.3-67.6-67.6"/>
		<path class="st12" d="M186,246.7c-30.5,0-55.2-24.7-55.2-55.2"/>
	</g>
</g>
<g>
	<rect x="44" y="3.2" class="st13" width="282" height="59.8"/>
	<rect x="53.1" y="11.2" class="st9" width="263.8" height="43.8"/>
</g>
<g>
	<circle class="st9" cx="838" cy="191.5" r="118.7"/>
	<circle class="st10" cx="838" cy="191.5" r="44.9"/>
	<circle class="st11" cx="838" cy="191.5" r="5.3"/>
	<g>
		<path class="st12" d="M733.2,191.5c0-57.9,46.9-104.8,104.8-104.8"/>
		<path class="st12" d="M745.6,191.5c0-51,41.4-92.4,92.4-92.4"/>
		<path class="st12" d="M758,191.5c0-44.2,35.8-80,80-80"/>
		<path class="st12" d="M770.4,191.5c0-37.3,30.3-67.6,67.6-67.6"/>
		<path class="st12" d="M782.8,191.5c0-30.5,24.7-55.2,55.2-55.2"/>
	</g>
	<g>
		<path class="st12" d="M942.8,191.5c0,57.9-46.9,104.8-104.8,104.8"/>
		<path class="st12" d="M930.4,191.5c0,51-41.4,92.4-92.4,92.4"/>
		<path class="st12" d="M918,191.5c0,44.2-35.8,80-80,80"/>
		<path class="st12" d="M905.6,191.5c0,37.3-30.3,67.6-67.6,67.6"/>
		<path class="st12" d="M893.2,191.5c0,30.5-24.7,55.2-55.2,55.2"/>
	</g>
</g>
<g>
	<rect x="698" y="3.2" class="st13" width="282" height="59.8"/>
	<rect x="707.1" y="11.2" class="st9" width="263.8" height="43.8"/>
</g>
<rect x="12" y="320" class="st13" width="1000" height="13"/>
<g>
	<rect x="378" y="163.6" class="st1" width="55.2" height="55.2"/>
	<rect x="378" y="153.6" class="st2" width="55.2" height="55.2"/>
</g>
<g>
	<rect x="590.8" y="163.6" class="st1" width="55.2" height="55.2"/>
	<rect x="590.8" y="153.6" class="st2" width="55.2" height="55.2"/>
</g>
<g>
	<rect x="519.9" y="163.6" class="st1" width="55.2" height="55.2"/>
	<rect x="519.9" y="153.6" class="st2" width="55.2" height="55.2"/>
</g>
<g>
	<rect x="448.9" y="163.6" class="st1" width="55.2" height="55.2"/>
	<rect x="448.9" y="153.6" class="st2" width="55.2" height="55.2"/>
</g>
</svg>
