<?xml version="1.0" encoding="utf-8"?>
<!-- Generator: Adobe Illustrator 25.0.1, SVG Export Plug-In . SVG Version: 6.00 Build 0)  -->
<svg version="1.0" xmlns="http://www.w3.org/2000/svg" xmlns:xlink="http://www.w3.org/1999/xlink" x="0px" y="0px"
	 viewBox="0 0 1024 768" style="enable-background:new 0 0 1024 768;" xml:space="preserve">
<style type="text/css">
	.st0{fill:#595959;}
	.st1{fill:#666666;}
	.st2{fill:#FFFFFF;stroke:#000000;stroke-width:4;stroke-miterlimit:10;}
	.st3{fill:#232323;}
	.st4{fill:#FF5050;}
	.st5{fill:#A0A0A0;}
	.st6{fill:#009245;}
	.st7{fill:#39B54A;}
	.st8{fill:#FFFFFF;stroke:#000000;stroke-width:4;stroke-linecap:round;stroke-miterlimit:10;}
	.st9{fill:#02C6C1;}
	.st10{fill:#00FFFF;}
	.st11{fill:#FF5B00;}
	.st12{fill:#FF8100;}
	.st13{fill:#008091;}
	.st14{fill:#009CB9;}
</style>
<g id="Layer_1">
	<rect x="12" y="469" class="st0" width="1000" height="300"/>
	<rect x="12" y="469" class="st1" width="1000" height="287"/>
	<line class="st2" x1="358" y1="756" x2="358" y2="469"/>
	<line class="st2" x1="666" y1="469" x2="666" y2="756"/>
	<rect x="746" y="447" class="st0" width="186" height="73"/>
	<rect x="92" y="447" transform="matrix(-1 -4.489798e-11 4.489798e-11 -1 370 967)" class="st0" width="186" height="73"/>
	<g>
		<circle class="st3" cx="839" cy="638" r="111"/>
		<circle class="st4" cx="839" cy="638" r="42"/>
		<circle class="st5" cx="839" cy="638" r="5"/>
	</g>
	<g>
		<circle class="st3" cx="185" cy="638" r="111"/>
		<circle class="st4" cx="185" cy="638" r="42"/>
		<circle class="st5" cx="185" cy="638" r="5"/>
	</g>
	<g>
		<polygon class="st6" points="73.33,712 73,704 32.33,688.33 32.33,735.67 		"/>
		<polygon class="st7" points="73.33,704 32.33,680.33 32.33,727.67 		"/>
	</g>
	<g>
		<polygon class="st6" points="992.33,712 992,704 951.33,688.33 951.33,735.67 		"/>
		<polygon class="st7" points="992.33,704 951.33,680.33 951.33,727.67 		"/>
	</g>
	<line class="st8" x1="328" y1="724" x2="328" y2="540"/>
	<line class="st8" x1="696" y1="724" x2="696" y2="540"/>
	<rect x="306" y="621" class="st3" width="44" height="22"/>
	<line class="st8" x1="382" y1="728" x2="642" y2="728"/>
	<rect x="490" y="717" transform="matrix(6.123234e-17 -1 1 6.123234e-17 -216 1240)" class="st3" width="44" height="22"/>
	<rect x="675" y="621" class="st3" width="44" height="22"/>
	<rect x="378" y="603.42" class="st9" width="55.17" height="55.17"/>
	<rect x="590.83" y="603.42" class="st9" width="55.17" height="55.17"/>
	<rect x="519.89" y="603.42" class="st9" width="55.17" height="55.17"/>
	<rect x="378" y="593.42" class="st10" width="55.17" height="55.17"/>
	<rect x="590.83" y="593.42" class="st10" width="55.17" height="55.17"/>
	<rect x="519.89" y="593.42" class="st10" width="55.17" height="55.17"/>
	<rect x="448.94" y="603.42" class="st9" width="55.17" height="55.17"/>
	<rect x="448.94" y="593.42" class="st10" width="55.17" height="55.17"/>
	<g>
		<path class="st11" d="M378.02,557.85c0.18,8.37,5.07,15.15,11.03,15.15h115.67c5.97,0,10.86-6.78,11.03-15.15
			c0.02-12.87,0.99-23.56-17.01-23.12c-2.7,0.07-5.26,0.89-7.53,2.48c-2.81-21.32-16.04-37.46-31.95-37.46
			c-11.98,0-22.43,9.16-28.07,22.78c-2.99-1.98-6.33-3.1-9.85-3.1c-8.73,0-16.33,6.8-20.29,16.86c-1.87-1-11.1-1.55-13.22-1.55
			C378.66,534.73,378.37,545,378.02,557.85z"/>
	</g>
	<g>
		<path class="st12" d="M378.02,549.11c0.18,8.37,5.07,15.15,11.03,15.15h115.67c5.97,0,10.86-6.78,11.03-15.15
			c-0.35-12.85-7.83-23.12-17.01-23.12c-2.7,0-5.26,0.89-7.53,2.48c-2.81-21.32-16.04-37.46-31.95-37.46
			c-11.98,0-22.43,9.16-28.07,22.78c-2.99-1.98-6.33-3.1-9.85-3.1c-8.73,0-16.33,6.8-20.29,16.86c-1.87-1-3.9-1.55-6.02-1.55
			C385.85,525.99,378.37,536.26,378.02,549.11z"/>
	</g>
	<path class="st13" d="M610,499h-50c-6.6,0-12,5.4-12,12v50c0,6.6,5.4,12,12,12h50c6.6,0,12-5.4,12-12v-50
		C622,504.4,616.6,499,610,499z"/>
	<path class="st14" d="M610,491h-50c-6.6,0-12,5.4-12,12v50c0,6.6,5.4,12,12,12h50c6.6,0,12-5.4,12-12v-50
		C622,496.4,616.6,491,610,491z"/>
	<rect x="98" y="452" transform="matrix(-1 -4.142920e-11 4.142920e-11 -1 370 967)" class="st3" width="174" height="63"/>
	<rect x="752" y="452" transform="matrix(-1 -4.142920e-11 4.142920e-11 -1 1678 967)" class="st3" width="174" height="63"/>
</g>
<g id="concept">
</g>
</svg>
